ISO-10303-21;
HEADER;
/* Generated by software containing ST-Developer
 * from STEP Tools, Inc. (www.steptools.com) 
 */
/* OPTION: using custom renumber hook */

FILE_DESCRIPTION(
/* description */ ('STEP AP242 Edition 2',
'CAx-IF Rec.Pracs.---Representation and Presentation of Product Manufa
cturing Information (PMI)---4.0---2014-10-13',
'CAx-IF Rec.Pracs.---3D Tessellated Geometry---0.4---2014-09-14','2;1',
'CAx-IF Rec.Pracs.---User Defined Attributes---1.5---2016-08-15'),
/* implementation_level */ '2;1');

FILE_NAME(
/* name */ 'Part Studio 1 - Panel',
/* time_stamp */ '2026-06-06T06:20:13Z',
/* author */ (''),
/* organization */ (''),
/* preprocessor_version */ 'ST-DEVELOPER v20',
/* originating_system */ 'ONSHAPE BY PTC INC, 1.216',
/* authorisation */ '  ');

FILE_SCHEMA (('AP242_MANAGED_MODEL_BASED_3D_ENGINEERING_MIM_LF { 1 0 10303 442 3 1 4 }'));
ENDSEC;

DATA;
#10=SHAPE_REPRESENTATION_RELATIONSHIP('','',#375,#11);
#11=ADVANCED_BREP_SHAPE_REPRESENTATION('',(#373),#619);
#12=CIRCLE('',#381,0.0016);
#13=CIRCLE('',#382,0.0016);
#14=CIRCLE('',#384,0.0016);
#15=CIRCLE('',#385,0.0016);
#16=CIRCLE('',#387,0.0016);
#17=CIRCLE('',#388,0.0016);
#18=CIRCLE('',#390,0.0029);
#19=CIRCLE('',#391,0.0029);
#20=CIRCLE('',#393,0.0029);
#21=CIRCLE('',#394,0.0029);
#22=CIRCLE('',#396,0.0029);
#23=CIRCLE('',#397,0.0029);
#24=CIRCLE('',#399,0.003875);
#25=CIRCLE('',#400,0.003875);
#26=CIRCLE('',#402,0.003875);
#27=CIRCLE('',#403,0.003875);
#28=CIRCLE('',#405,0.0033);
#29=CIRCLE('',#406,0.0033);
#30=CIRCLE('',#408,0.0033);
#31=CIRCLE('',#409,0.0033);
#32=CIRCLE('',#411,0.0033);
#33=CIRCLE('',#412,0.0033);
#34=CIRCLE('',#414,0.0033);
#35=CIRCLE('',#415,0.0033);
#36=CIRCLE('',#418,0.0016);
#37=CIRCLE('',#419,0.0016);
#38=CYLINDRICAL_SURFACE('',#380,0.0016);
#39=CYLINDRICAL_SURFACE('',#383,0.0016);
#40=CYLINDRICAL_SURFACE('',#386,0.0016);
#41=CYLINDRICAL_SURFACE('',#389,0.0029);
#42=CYLINDRICAL_SURFACE('',#392,0.0029);
#43=CYLINDRICAL_SURFACE('',#395,0.0029);
#44=CYLINDRICAL_SURFACE('',#398,0.003875);
#45=CYLINDRICAL_SURFACE('',#401,0.003875);
#46=CYLINDRICAL_SURFACE('',#404,0.0033);
#47=CYLINDRICAL_SURFACE('',#407,0.0033);
#48=CYLINDRICAL_SURFACE('',#410,0.0033);
#49=CYLINDRICAL_SURFACE('',#413,0.0033);
#50=CYLINDRICAL_SURFACE('',#417,0.0016);
#51=ORIENTED_EDGE('',*,*,#127,.F.);
#52=ORIENTED_EDGE('',*,*,#128,.F.);
#53=ORIENTED_EDGE('',*,*,#129,.T.);
#54=ORIENTED_EDGE('',*,*,#130,.T.);
#55=ORIENTED_EDGE('',*,*,#131,.T.);
#56=ORIENTED_EDGE('',*,*,#132,.F.);
#57=ORIENTED_EDGE('',*,*,#133,.F.);
#58=ORIENTED_EDGE('',*,*,#128,.T.);
#59=ORIENTED_EDGE('',*,*,#134,.T.);
#60=ORIENTED_EDGE('',*,*,#135,.F.);
#61=ORIENTED_EDGE('',*,*,#136,.F.);
#62=ORIENTED_EDGE('',*,*,#132,.T.);
#63=ORIENTED_EDGE('',*,*,#137,.F.);
#64=ORIENTED_EDGE('',*,*,#138,.T.);
#65=ORIENTED_EDGE('',*,*,#139,.T.);
#66=ORIENTED_EDGE('',*,*,#140,.F.);
#67=ORIENTED_EDGE('',*,*,#141,.T.);
#68=ORIENTED_EDGE('',*,*,#142,.F.);
#69=ORIENTED_EDGE('',*,*,#143,.T.);
#70=ORIENTED_EDGE('',*,*,#144,.F.);
#71=ORIENTED_EDGE('',*,*,#145,.T.);
#72=ORIENTED_EDGE('',*,*,#146,.F.);
#73=ORIENTED_EDGE('',*,*,#147,.T.);
#74=ORIENTED_EDGE('',*,*,#148,.F.);
#75=ORIENTED_EDGE('',*,*,#149,.T.);
#76=ORIENTED_EDGE('',*,*,#150,.F.);
#77=ORIENTED_EDGE('',*,*,#151,.T.);
#78=ORIENTED_EDGE('',*,*,#152,.F.);
#79=ORIENTED_EDGE('',*,*,#153,.T.);
#80=ORIENTED_EDGE('',*,*,#154,.F.);
#81=ORIENTED_EDGE('',*,*,#155,.T.);
#82=ORIENTED_EDGE('',*,*,#156,.F.);
#83=ORIENTED_EDGE('',*,*,#157,.T.);
#84=ORIENTED_EDGE('',*,*,#158,.F.);
#85=ORIENTED_EDGE('',*,*,#159,.T.);
#86=ORIENTED_EDGE('',*,*,#160,.F.);
#87=ORIENTED_EDGE('',*,*,#161,.F.);
#88=ORIENTED_EDGE('',*,*,#130,.F.);
#89=ORIENTED_EDGE('',*,*,#162,.T.);
#90=ORIENTED_EDGE('',*,*,#135,.T.);
#91=ORIENTED_EDGE('',*,*,#163,.F.);
#92=ORIENTED_EDGE('',*,*,#164,.T.);
#93=ORIENTED_EDGE('',*,*,#129,.F.);
#94=ORIENTED_EDGE('',*,*,#133,.T.);
#95=ORIENTED_EDGE('',*,*,#136,.T.);
#96=ORIENTED_EDGE('',*,*,#162,.F.);
#97=ORIENTED_EDGE('',*,*,#159,.F.);
#98=ORIENTED_EDGE('',*,*,#157,.F.);
#99=ORIENTED_EDGE('',*,*,#155,.F.);
#100=ORIENTED_EDGE('',*,*,#153,.F.);
#101=ORIENTED_EDGE('',*,*,#151,.F.);
#102=ORIENTED_EDGE('',*,*,#149,.F.);
#103=ORIENTED_EDGE('',*,*,#147,.F.);
#104=ORIENTED_EDGE('',*,*,#145,.F.);
#105=ORIENTED_EDGE('',*,*,#143,.F.);
#106=ORIENTED_EDGE('',*,*,#141,.F.);
#107=ORIENTED_EDGE('',*,*,#139,.F.);
#108=ORIENTED_EDGE('',*,*,#137,.T.);
#109=ORIENTED_EDGE('',*,*,#163,.T.);
#110=ORIENTED_EDGE('',*,*,#127,.T.);
#111=ORIENTED_EDGE('',*,*,#161,.T.);
#112=ORIENTED_EDGE('',*,*,#134,.F.);
#113=ORIENTED_EDGE('',*,*,#131,.F.);
#114=ORIENTED_EDGE('',*,*,#160,.T.);
#115=ORIENTED_EDGE('',*,*,#158,.T.);
#116=ORIENTED_EDGE('',*,*,#156,.T.);
#117=ORIENTED_EDGE('',*,*,#154,.T.);
#118=ORIENTED_EDGE('',*,*,#152,.T.);
#119=ORIENTED_EDGE('',*,*,#150,.T.);
#120=ORIENTED_EDGE('',*,*,#148,.T.);
#121=ORIENTED_EDGE('',*,*,#146,.T.);
#122=ORIENTED_EDGE('',*,*,#144,.T.);
#123=ORIENTED_EDGE('',*,*,#142,.T.);
#124=ORIENTED_EDGE('',*,*,#140,.T.);
#125=ORIENTED_EDGE('',*,*,#138,.F.);
#126=ORIENTED_EDGE('',*,*,#164,.F.);
#127=EDGE_CURVE('',#165,#166,#199,.T.);
#128=EDGE_CURVE('',#167,#165,#200,.T.);
#129=EDGE_CURVE('',#167,#168,#201,.T.);
#130=EDGE_CURVE('',#168,#166,#202,.T.);
#131=EDGE_CURVE('',#165,#169,#203,.T.);
#132=EDGE_CURVE('',#170,#169,#204,.T.);
#133=EDGE_CURVE('',#167,#170,#205,.T.);
#134=EDGE_CURVE('',#169,#171,#206,.T.);
#135=EDGE_CURVE('',#172,#171,#207,.T.);
#136=EDGE_CURVE('',#170,#172,#208,.T.);
#137=EDGE_CURVE('',#173,#173,#12,.T.);
#138=EDGE_CURVE('',#174,#174,#13,.T.);
#139=EDGE_CURVE('',#175,#175,#14,.T.);
#140=EDGE_CURVE('',#176,#176,#15,.T.);
#141=EDGE_CURVE('',#177,#177,#16,.T.);
#142=EDGE_CURVE('',#178,#178,#17,.T.);
#143=EDGE_CURVE('',#179,#179,#18,.T.);
#144=EDGE_CURVE('',#180,#180,#19,.T.);
#145=EDGE_CURVE('',#181,#181,#20,.T.);
#146=EDGE_CURVE('',#182,#182,#21,.T.);
#147=EDGE_CURVE('',#183,#183,#22,.T.);
#148=EDGE_CURVE('',#184,#184,#23,.T.);
#149=EDGE_CURVE('',#185,#185,#24,.T.);
#150=EDGE_CURVE('',#186,#186,#25,.T.);
#151=EDGE_CURVE('',#187,#187,#26,.T.);
#152=EDGE_CURVE('',#188,#188,#27,.T.);
#153=EDGE_CURVE('',#189,#189,#28,.T.);
#154=EDGE_CURVE('',#190,#190,#29,.T.);
#155=EDGE_CURVE('',#191,#191,#30,.T.);
#156=EDGE_CURVE('',#192,#192,#31,.T.);
#157=EDGE_CURVE('',#193,#193,#32,.T.);
#158=EDGE_CURVE('',#194,#194,#33,.T.);
#159=EDGE_CURVE('',#195,#195,#34,.T.);
#160=EDGE_CURVE('',#196,#196,#35,.T.);
#161=EDGE_CURVE('',#166,#171,#209,.T.);
#162=EDGE_CURVE('',#168,#172,#210,.T.);
#163=EDGE_CURVE('',#197,#197,#36,.T.);
#164=EDGE_CURVE('',#198,#198,#37,.T.);
#165=VERTEX_POINT('',#529);
#166=VERTEX_POINT('',#530);
#167=VERTEX_POINT('',#532);
#168=VERTEX_POINT('',#534);
#169=VERTEX_POINT('',#538);
#170=VERTEX_POINT('',#540);
#171=VERTEX_POINT('',#544);
#172=VERTEX_POINT('',#546);
#173=VERTEX_POINT('',#550);
#174=VERTEX_POINT('',#552);
#175=VERTEX_POINT('',#555);
#176=VERTEX_POINT('',#557);
#177=VERTEX_POINT('',#560);
#178=VERTEX_POINT('',#562);
#179=VERTEX_POINT('',#565);
#180=VERTEX_POINT('',#567);
#181=VERTEX_POINT('',#570);
#182=VERTEX_POINT('',#572);
#183=VERTEX_POINT('',#575);
#184=VERTEX_POINT('',#577);
#185=VERTEX_POINT('',#580);
#186=VERTEX_POINT('',#582);
#187=VERTEX_POINT('',#585);
#188=VERTEX_POINT('',#587);
#189=VERTEX_POINT('',#590);
#190=VERTEX_POINT('',#592);
#191=VERTEX_POINT('',#595);
#192=VERTEX_POINT('',#597);
#193=VERTEX_POINT('',#600);
#194=VERTEX_POINT('',#602);
#195=VERTEX_POINT('',#605);
#196=VERTEX_POINT('',#607);
#197=VERTEX_POINT('',#613);
#198=VERTEX_POINT('',#615);
#199=LINE('',#528,#211);
#200=LINE('',#531,#212);
#201=LINE('',#533,#213);
#202=LINE('',#535,#214);
#203=LINE('',#537,#215);
#204=LINE('',#539,#216);
#205=LINE('',#541,#217);
#206=LINE('',#543,#218);
#207=LINE('',#545,#219);
#208=LINE('',#547,#220);
#209=LINE('',#609,#221);
#210=LINE('',#610,#222);
#211=VECTOR('',#426,1.);
#212=VECTOR('',#427,1.);
#213=VECTOR('',#428,1.);
#214=VECTOR('',#429,1.);
#215=VECTOR('',#432,1.);
#216=VECTOR('',#433,1.);
#217=VECTOR('',#434,1.);
#218=VECTOR('',#437,1.);
#219=VECTOR('',#438,1.);
#220=VECTOR('',#439,1.);
#221=VECTOR('',#514,1.);
#222=VECTOR('',#515,1.);
#223=EDGE_LOOP('',(#51,#52,#53,#54));
#224=EDGE_LOOP('',(#55,#56,#57,#58));
#225=EDGE_LOOP('',(#59,#60,#61,#62));
#226=EDGE_LOOP('',(#63));
#227=EDGE_LOOP('',(#64));
#228=EDGE_LOOP('',(#65));
#229=EDGE_LOOP('',(#66));
#230=EDGE_LOOP('',(#67));
#231=EDGE_LOOP('',(#68));
#232=EDGE_LOOP('',(#69));
#233=EDGE_LOOP('',(#70));
#234=EDGE_LOOP('',(#71));
#235=EDGE_LOOP('',(#72));
#236=EDGE_LOOP('',(#73));
#237=EDGE_LOOP('',(#74));
#238=EDGE_LOOP('',(#75));
#239=EDGE_LOOP('',(#76));
#240=EDGE_LOOP('',(#77));
#241=EDGE_LOOP('',(#78));
#242=EDGE_LOOP('',(#79));
#243=EDGE_LOOP('',(#80));
#244=EDGE_LOOP('',(#81));
#245=EDGE_LOOP('',(#82));
#246=EDGE_LOOP('',(#83));
#247=EDGE_LOOP('',(#84));
#248=EDGE_LOOP('',(#85));
#249=EDGE_LOOP('',(#86));
#250=EDGE_LOOP('',(#87,#88,#89,#90));
#251=EDGE_LOOP('',(#91));
#252=EDGE_LOOP('',(#92));
#253=EDGE_LOOP('',(#93,#94,#95,#96));
#254=EDGE_LOOP('',(#97));
#255=EDGE_LOOP('',(#98));
#256=EDGE_LOOP('',(#99));
#257=EDGE_LOOP('',(#100));
#258=EDGE_LOOP('',(#101));
#259=EDGE_LOOP('',(#102));
#260=EDGE_LOOP('',(#103));
#261=EDGE_LOOP('',(#104));
#262=EDGE_LOOP('',(#105));
#263=EDGE_LOOP('',(#106));
#264=EDGE_LOOP('',(#107));
#265=EDGE_LOOP('',(#108));
#266=EDGE_LOOP('',(#109));
#267=EDGE_LOOP('',(#110,#111,#112,#113));
#268=EDGE_LOOP('',(#114));
#269=EDGE_LOOP('',(#115));
#270=EDGE_LOOP('',(#116));
#271=EDGE_LOOP('',(#117));
#272=EDGE_LOOP('',(#118));
#273=EDGE_LOOP('',(#119));
#274=EDGE_LOOP('',(#120));
#275=EDGE_LOOP('',(#121));
#276=EDGE_LOOP('',(#122));
#277=EDGE_LOOP('',(#123));
#278=EDGE_LOOP('',(#124));
#279=EDGE_LOOP('',(#125));
#280=EDGE_LOOP('',(#126));
#281=FACE_BOUND('',#223,.T.);
#282=FACE_BOUND('',#224,.T.);
#283=FACE_BOUND('',#225,.T.);
#284=FACE_BOUND('',#226,.T.);
#285=FACE_BOUND('',#227,.T.);
#286=FACE_BOUND('',#228,.T.);
#287=FACE_BOUND('',#229,.T.);
#288=FACE_BOUND('',#230,.T.);
#289=FACE_BOUND('',#231,.T.);
#290=FACE_BOUND('',#232,.T.);
#291=FACE_BOUND('',#233,.T.);
#292=FACE_BOUND('',#234,.T.);
#293=FACE_BOUND('',#235,.T.);
#294=FACE_BOUND('',#236,.T.);
#295=FACE_BOUND('',#237,.T.);
#296=FACE_BOUND('',#238,.T.);
#297=FACE_BOUND('',#239,.T.);
#298=FACE_BOUND('',#240,.T.);
#299=FACE_BOUND('',#241,.T.);
#300=FACE_BOUND('',#242,.T.);
#301=FACE_BOUND('',#243,.T.);
#302=FACE_BOUND('',#244,.T.);
#303=FACE_BOUND('',#245,.T.);
#304=FACE_BOUND('',#246,.T.);
#305=FACE_BOUND('',#247,.T.);
#306=FACE_BOUND('',#248,.T.);
#307=FACE_BOUND('',#249,.T.);
#308=FACE_BOUND('',#250,.T.);
#309=FACE_BOUND('',#251,.T.);
#310=FACE_BOUND('',#252,.T.);
#311=FACE_BOUND('',#253,.T.);
#312=FACE_BOUND('',#254,.T.);
#313=FACE_BOUND('',#255,.T.);
#314=FACE_BOUND('',#256,.T.);
#315=FACE_BOUND('',#257,.T.);
#316=FACE_BOUND('',#258,.T.);
#317=FACE_BOUND('',#259,.T.);
#318=FACE_BOUND('',#260,.T.);
#319=FACE_BOUND('',#261,.T.);
#320=FACE_BOUND('',#262,.T.);
#321=FACE_BOUND('',#263,.T.);
#322=FACE_BOUND('',#264,.T.);
#323=FACE_BOUND('',#265,.T.);
#324=FACE_BOUND('',#266,.T.);
#325=FACE_BOUND('',#267,.T.);
#326=FACE_BOUND('',#268,.T.);
#327=FACE_BOUND('',#269,.T.);
#328=FACE_BOUND('',#270,.T.);
#329=FACE_BOUND('',#271,.T.);
#330=FACE_BOUND('',#272,.T.);
#331=FACE_BOUND('',#273,.T.);
#332=FACE_BOUND('',#274,.T.);
#333=FACE_BOUND('',#275,.T.);
#334=FACE_BOUND('',#276,.T.);
#335=FACE_BOUND('',#277,.T.);
#336=FACE_BOUND('',#278,.T.);
#337=FACE_BOUND('',#279,.T.);
#338=FACE_BOUND('',#280,.T.);
#339=PLANE('',#377);
#340=PLANE('',#378);
#341=PLANE('',#379);
#342=PLANE('',#416);
#343=PLANE('',#420);
#344=PLANE('',#421);
#345=ADVANCED_FACE('',(#281),#339,.T.);
#346=ADVANCED_FACE('',(#282),#340,.F.);
#347=ADVANCED_FACE('',(#283),#341,.F.);
#348=ADVANCED_FACE('',(#284,#285),#38,.F.);
#349=ADVANCED_FACE('',(#286,#287),#39,.F.);
#350=ADVANCED_FACE('',(#288,#289),#40,.F.);
#351=ADVANCED_FACE('',(#290,#291),#41,.F.);
#352=ADVANCED_FACE('',(#292,#293),#42,.F.);
#353=ADVANCED_FACE('',(#294,#295),#43,.F.);
#354=ADVANCED_FACE('',(#296,#297),#44,.F.);
#355=ADVANCED_FACE('',(#298,#299),#45,.F.);
#356=ADVANCED_FACE('',(#300,#301),#46,.F.);
#357=ADVANCED_FACE('',(#302,#303),#47,.F.);
#358=ADVANCED_FACE('',(#304,#305),#48,.F.);
#359=ADVANCED_FACE('',(#306,#307),#49,.F.);
#360=ADVANCED_FACE('',(#308),#342,.T.);
#361=ADVANCED_FACE('',(#309,#310),#50,.F.);
#362=ADVANCED_FACE('',(#311,#312,#313,#314,#315,#316,#317,#318,#319,#320,
#321,#322,#323,#324),#343,.T.);
#363=ADVANCED_FACE('',(#325,#326,#327,#328,#329,#330,#331,#332,#333,#334,
#335,#336,#337,#338),#344,.F.);
#364=CLOSED_SHELL('',(#345,#346,#347,#348,#349,#350,#351,#352,#353,#354,
#355,#356,#357,#358,#359,#360,#361,#362,#363));
#365=STYLED_ITEM('',(#366),#373);
#366=PRESENTATION_STYLE_ASSIGNMENT((#367));
#367=SURFACE_STYLE_USAGE(.BOTH.,#368);
#368=SURFACE_SIDE_STYLE('',(#369));
#369=SURFACE_STYLE_FILL_AREA(#370);
#370=FILL_AREA_STYLE('',(#371));
#371=FILL_AREA_STYLE_COLOUR('',#372);
#372=COLOUR_RGB('',0.615686274509804,0.811764705882353,0.929411764705882);
#373=MANIFOLD_SOLID_BREP('Panel',#364);
#374=SHAPE_DEFINITION_REPRESENTATION(#624,#375);
#375=SHAPE_REPRESENTATION('Panel',(#376),#619);
#376=AXIS2_PLACEMENT_3D('',#526,#422,#423);
#377=AXIS2_PLACEMENT_3D('',#527,#424,#425);
#378=AXIS2_PLACEMENT_3D('',#536,#430,#431);
#379=AXIS2_PLACEMENT_3D('',#542,#435,#436);
#380=AXIS2_PLACEMENT_3D('',#548,#440,#441);
#381=AXIS2_PLACEMENT_3D('',#549,#442,#443);
#382=AXIS2_PLACEMENT_3D('',#551,#444,#445);
#383=AXIS2_PLACEMENT_3D('',#553,#446,#447);
#384=AXIS2_PLACEMENT_3D('',#554,#448,#449);
#385=AXIS2_PLACEMENT_3D('',#556,#450,#451);
#386=AXIS2_PLACEMENT_3D('',#558,#452,#453);
#387=AXIS2_PLACEMENT_3D('',#559,#454,#455);
#388=AXIS2_PLACEMENT_3D('',#561,#456,#457);
#389=AXIS2_PLACEMENT_3D('',#563,#458,#459);
#390=AXIS2_PLACEMENT_3D('',#564,#460,#461);
#391=AXIS2_PLACEMENT_3D('',#566,#462,#463);
#392=AXIS2_PLACEMENT_3D('',#568,#464,#465);
#393=AXIS2_PLACEMENT_3D('',#569,#466,#467);
#394=AXIS2_PLACEMENT_3D('',#571,#468,#469);
#395=AXIS2_PLACEMENT_3D('',#573,#470,#471);
#396=AXIS2_PLACEMENT_3D('',#574,#472,#473);
#397=AXIS2_PLACEMENT_3D('',#576,#474,#475);
#398=AXIS2_PLACEMENT_3D('',#578,#476,#477);
#399=AXIS2_PLACEMENT_3D('',#579,#478,#479);
#400=AXIS2_PLACEMENT_3D('',#581,#480,#481);
#401=AXIS2_PLACEMENT_3D('',#583,#482,#483);
#402=AXIS2_PLACEMENT_3D('',#584,#484,#485);
#403=AXIS2_PLACEMENT_3D('',#586,#486,#487);
#404=AXIS2_PLACEMENT_3D('',#588,#488,#489);
#405=AXIS2_PLACEMENT_3D('',#589,#490,#491);
#406=AXIS2_PLACEMENT_3D('',#591,#492,#493);
#407=AXIS2_PLACEMENT_3D('',#593,#494,#495);
#408=AXIS2_PLACEMENT_3D('',#594,#496,#497);
#409=AXIS2_PLACEMENT_3D('',#596,#498,#499);
#410=AXIS2_PLACEMENT_3D('',#598,#500,#501);
#411=AXIS2_PLACEMENT_3D('',#599,#502,#503);
#412=AXIS2_PLACEMENT_3D('',#601,#504,#505);
#413=AXIS2_PLACEMENT_3D('',#603,#506,#507);
#414=AXIS2_PLACEMENT_3D('',#604,#508,#509);
#415=AXIS2_PLACEMENT_3D('',#606,#510,#511);
#416=AXIS2_PLACEMENT_3D('',#608,#512,#513);
#417=AXIS2_PLACEMENT_3D('',#611,#516,#517);
#418=AXIS2_PLACEMENT_3D('',#612,#518,#519);
#419=AXIS2_PLACEMENT_3D('',#614,#520,#521);
#420=AXIS2_PLACEMENT_3D('',#616,#522,#523);
#421=AXIS2_PLACEMENT_3D('',#617,#524,#525);
#422=DIRECTION('',(0.,0.,1.));
#423=DIRECTION('',(1.,0.,0.));
#424=DIRECTION('',(1.,-6.50439998491491E-17,0.));
#425=DIRECTION('',(6.50439998491491E-17,1.,0.));
#426=DIRECTION('',(-6.50439998491491E-17,-1.,0.));
#427=DIRECTION('',(0.,0.,-1.));
#428=DIRECTION('',(-6.50439998491491E-17,-1.,0.));
#429=DIRECTION('',(0.,0.,-1.));
#430=DIRECTION('',(0.,-1.,0.));
#431=DIRECTION('',(0.,0.,-1.));
#432=DIRECTION('',(-1.,0.,0.));
#433=DIRECTION('',(0.,0.,-1.));
#434=DIRECTION('',(-1.,0.,0.));
#435=DIRECTION('',(1.,-6.50439998491491E-17,0.));
#436=DIRECTION('',(6.50439998491491E-17,1.,0.));
#437=DIRECTION('',(-6.50439998491491E-17,-1.,0.));
#438=DIRECTION('',(0.,0.,-1.));
#439=DIRECTION('',(-6.50439998491491E-17,-1.,0.));
#440=DIRECTION('',(0.,0.,-1.));
#441=DIRECTION('',(-1.,0.,0.));
#442=DIRECTION('',(0.,0.,-1.));
#443=DIRECTION('',(1.,0.,0.));
#444=DIRECTION('',(0.,0.,-1.));
#445=DIRECTION('',(1.,0.,0.));
#446=DIRECTION('',(0.,0.,-1.));
#447=DIRECTION('',(-1.,0.,0.));
#448=DIRECTION('',(0.,0.,1.));
#449=DIRECTION('',(1.,0.,0.));
#450=DIRECTION('',(0.,0.,1.));
#451=DIRECTION('',(1.,0.,0.));
#452=DIRECTION('',(0.,0.,-1.));
#453=DIRECTION('',(-1.,0.,0.));
#454=DIRECTION('',(0.,0.,1.));
#455=DIRECTION('',(1.,0.,0.));
#456=DIRECTION('',(0.,0.,1.));
#457=DIRECTION('',(1.,0.,0.));
#458=DIRECTION('',(0.,0.,-1.));
#459=DIRECTION('',(-1.,0.,0.));
#460=DIRECTION('',(0.,0.,1.));
#461=DIRECTION('',(1.,0.,0.));
#462=DIRECTION('',(0.,0.,1.));
#463=DIRECTION('',(1.,0.,0.));
#464=DIRECTION('',(0.,0.,-1.));
#465=DIRECTION('',(-1.,0.,0.));
#466=DIRECTION('',(0.,0.,1.));
#467=DIRECTION('',(1.,0.,0.));
#468=DIRECTION('',(0.,0.,1.));
#469=DIRECTION('',(1.,0.,0.));
#470=DIRECTION('',(0.,0.,-1.));
#471=DIRECTION('',(-1.,0.,0.));
#472=DIRECTION('',(0.,0.,1.));
#473=DIRECTION('',(1.,0.,0.));
#474=DIRECTION('',(0.,0.,1.));
#475=DIRECTION('',(1.,0.,0.));
#476=DIRECTION('',(0.,0.,-1.));
#477=DIRECTION('',(-1.,0.,0.));
#478=DIRECTION('',(0.,0.,1.));
#479=DIRECTION('',(1.,0.,0.));
#480=DIRECTION('',(0.,0.,1.));
#481=DIRECTION('',(1.,0.,0.));
#482=DIRECTION('',(0.,0.,-1.));
#483=DIRECTION('',(-1.,0.,0.));
#484=DIRECTION('',(0.,0.,1.));
#485=DIRECTION('',(1.,0.,0.));
#486=DIRECTION('',(0.,0.,1.));
#487=DIRECTION('',(1.,0.,0.));
#488=DIRECTION('',(0.,0.,-1.));
#489=DIRECTION('',(-1.,0.,0.));
#490=DIRECTION('',(0.,0.,1.));
#491=DIRECTION('',(1.,0.,0.));
#492=DIRECTION('',(0.,0.,1.));
#493=DIRECTION('',(1.,0.,0.));
#494=DIRECTION('',(0.,0.,-1.));
#495=DIRECTION('',(-1.,0.,0.));
#496=DIRECTION('',(0.,0.,1.));
#497=DIRECTION('',(1.,0.,0.));
#498=DIRECTION('',(0.,0.,1.));
#499=DIRECTION('',(1.,0.,0.));
#500=DIRECTION('',(0.,0.,-1.));
#501=DIRECTION('',(-1.,0.,0.));
#502=DIRECTION('',(0.,0.,1.));
#503=DIRECTION('',(1.,0.,0.));
#504=DIRECTION('',(0.,0.,1.));
#505=DIRECTION('',(1.,0.,0.));
#506=DIRECTION('',(0.,0.,-1.));
#507=DIRECTION('',(-1.,0.,0.));
#508=DIRECTION('',(0.,0.,1.));
#509=DIRECTION('',(1.,0.,0.));
#510=DIRECTION('',(0.,0.,1.));
#511=DIRECTION('',(1.,0.,0.));
#512=DIRECTION('',(0.,-1.,0.));
#513=DIRECTION('',(0.,0.,-1.));
#514=DIRECTION('',(-1.,0.,0.));
#515=DIRECTION('',(-1.,0.,0.));
#516=DIRECTION('',(0.,0.,-1.));
#517=DIRECTION('',(-1.,0.,0.));
#518=DIRECTION('',(0.,0.,-1.));
#519=DIRECTION('',(1.,0.,0.));
#520=DIRECTION('',(0.,0.,-1.));
#521=DIRECTION('',(1.,0.,0.));
#522=DIRECTION('',(0.,0.,1.));
#523=DIRECTION('',(1.,0.,0.));
#524=DIRECTION('',(0.,0.,1.));
#525=DIRECTION('',(1.,0.,0.));
#526=CARTESIAN_POINT('',(0.,0.,0.));
#527=CARTESIAN_POINT('',(0.015125,0.,0.001588));
#528=CARTESIAN_POINT('',(0.015125,0.,0.));
#529=CARTESIAN_POINT('',(0.015125,0.066675,0.));
#530=CARTESIAN_POINT('',(0.015125,-0.066675,0.));
#531=CARTESIAN_POINT('',(0.015125,0.066675,0.001588));
#532=CARTESIAN_POINT('',(0.015125,0.066675,0.001588));
#533=CARTESIAN_POINT('',(0.015125,0.,0.001588));
#534=CARTESIAN_POINT('',(0.015125,-0.066675,0.001588));
#535=CARTESIAN_POINT('',(0.015125,-0.066675,0.001588));
#536=CARTESIAN_POINT('',(3.46944695195361E-18,0.066675,0.001588));
#537=CARTESIAN_POINT('',(3.46944695195361E-18,0.066675,0.));
#538=CARTESIAN_POINT('',(-0.015125,0.066675,0.));
#539=CARTESIAN_POINT('',(-0.015125,0.066675,0.001588));
#540=CARTESIAN_POINT('',(-0.015125,0.066675,0.001588));
#541=CARTESIAN_POINT('',(3.46944695195361E-18,0.066675,0.001588));
#542=CARTESIAN_POINT('',(-0.015125,0.,0.001588));
#543=CARTESIAN_POINT('',(-0.015125,0.,0.));
#544=CARTESIAN_POINT('',(-0.015125,-0.066675,0.));
#545=CARTESIAN_POINT('',(-0.015125,-0.066675,0.001588));
#546=CARTESIAN_POINT('',(-0.015125,-0.066675,0.001588));
#547=CARTESIAN_POINT('',(-0.015125,0.,0.001588));
#548=CARTESIAN_POINT('',(0.007565,-0.063675,0.001588));
#549=CARTESIAN_POINT('',(0.007565,-0.063675,0.001588));
#550=CARTESIAN_POINT('',(0.009165,-0.063675,0.001588));
#551=CARTESIAN_POINT('',(0.007565,-0.063675,0.));
#552=CARTESIAN_POINT('',(0.009165,-0.063675,0.));
#553=CARTESIAN_POINT('',(0.007565,0.063675,0.001588));
#554=CARTESIAN_POINT('',(0.007565,0.063675,0.001588));
#555=CARTESIAN_POINT('',(0.009165,0.063675,0.001588));
#556=CARTESIAN_POINT('',(0.007565,0.063675,0.));
#557=CARTESIAN_POINT('',(0.009165,0.063675,0.));
#558=CARTESIAN_POINT('',(-0.007675,0.063675,0.001588));
#559=CARTESIAN_POINT('',(-0.007675,0.063675,0.001588));
#560=CARTESIAN_POINT('',(-0.006075,0.063675,0.001588));
#561=CARTESIAN_POINT('',(-0.007675,0.063675,0.));
#562=CARTESIAN_POINT('',(-0.006075,0.063675,0.));
#563=CARTESIAN_POINT('',(0.007,0.03785,0.001588));
#564=CARTESIAN_POINT('',(0.007,0.03785,0.001588));
#565=CARTESIAN_POINT('',(0.0099,0.03785,0.001588));
#566=CARTESIAN_POINT('',(0.007,0.03785,0.));
#567=CARTESIAN_POINT('',(0.0099,0.03785,0.));
#568=CARTESIAN_POINT('',(0.007,0.01931,0.001588));
#569=CARTESIAN_POINT('',(0.007,0.01931,0.001588));
#570=CARTESIAN_POINT('',(0.0099,0.01931,0.001588));
#571=CARTESIAN_POINT('',(0.007,0.01931,0.));
#572=CARTESIAN_POINT('',(0.0099,0.01931,0.));
#573=CARTESIAN_POINT('',(0.007,0.00231,0.001588));
#574=CARTESIAN_POINT('',(0.007,0.00231,0.001588));
#575=CARTESIAN_POINT('',(0.0099,0.00231,0.001588));
#576=CARTESIAN_POINT('',(0.007,0.00231,0.));
#577=CARTESIAN_POINT('',(0.0099,0.00231,0.));
#578=CARTESIAN_POINT('',(-0.007,0.03352,0.001588));
#579=CARTESIAN_POINT('',(-0.007,0.03352,0.001588));
#580=CARTESIAN_POINT('',(-0.003125,0.03352,0.001588));
#581=CARTESIAN_POINT('',(-0.007,0.03352,0.));
#582=CARTESIAN_POINT('',(-0.003125,0.03352,0.));
#583=CARTESIAN_POINT('',(-0.007,0.00647,0.001588));
#584=CARTESIAN_POINT('',(-0.007,0.00647,0.001588));
#585=CARTESIAN_POINT('',(-0.003125,0.00647,0.001588));
#586=CARTESIAN_POINT('',(-0.007,0.00647,0.));
#587=CARTESIAN_POINT('',(-0.003125,0.00647,0.));
#588=CARTESIAN_POINT('',(0.007,-0.0231,0.001588));
#589=CARTESIAN_POINT('',(0.007,-0.0231,0.001588));
#590=CARTESIAN_POINT('',(0.0103,-0.0231,0.001588));
#591=CARTESIAN_POINT('',(0.007,-0.0231,0.));
#592=CARTESIAN_POINT('',(0.0103,-0.0231,0.));
#593=CARTESIAN_POINT('',(0.007,-0.04,0.001588));
#594=CARTESIAN_POINT('',(0.007,-0.04,0.001588));
#595=CARTESIAN_POINT('',(0.0103,-0.04,0.001588));
#596=CARTESIAN_POINT('',(0.007,-0.04,0.));
#597=CARTESIAN_POINT('',(0.0103,-0.04,0.));
#598=CARTESIAN_POINT('',(-0.007,-0.0231,0.001588));
#599=CARTESIAN_POINT('',(-0.007,-0.0231,0.001588));
#600=CARTESIAN_POINT('',(-0.0037,-0.0231,0.001588));
#601=CARTESIAN_POINT('',(-0.007,-0.0231,0.));
#602=CARTESIAN_POINT('',(-0.0037,-0.0231,0.));
#603=CARTESIAN_POINT('',(-0.007,-0.04,0.001588));
#604=CARTESIAN_POINT('',(-0.007,-0.04,0.001588));
#605=CARTESIAN_POINT('',(-0.0037,-0.04,0.001588));
#606=CARTESIAN_POINT('',(-0.007,-0.04,0.));
#607=CARTESIAN_POINT('',(-0.0037,-0.04,0.));
#608=CARTESIAN_POINT('',(-3.46944695195361E-18,-0.066675,0.001588));
#609=CARTESIAN_POINT('',(-3.46944695195361E-18,-0.066675,0.));
#610=CARTESIAN_POINT('',(-3.46944695195361E-18,-0.066675,0.001588));
#611=CARTESIAN_POINT('',(-0.007675,-0.063675,0.001588));
#612=CARTESIAN_POINT('',(-0.007675,-0.063675,0.001588));
#613=CARTESIAN_POINT('',(-0.006075,-0.063675,0.001588));
#614=CARTESIAN_POINT('',(-0.007675,-0.063675,0.));
#615=CARTESIAN_POINT('',(-0.006075,-0.063675,0.));
#616=CARTESIAN_POINT('',(0.,0.,0.001588));
#617=CARTESIAN_POINT('',(0.,0.,0.));
#618=MECHANICAL_DESIGN_GEOMETRIC_PRESENTATION_REPRESENTATION('',(#365),
#619);
#619=(
GEOMETRIC_REPRESENTATION_CONTEXT(3)
GLOBAL_UNCERTAINTY_ASSIGNED_CONTEXT((#620))
GLOBAL_UNIT_ASSIGNED_CONTEXT((#623,#622,#621))
REPRESENTATION_CONTEXT('Panel','TOP_LEVEL_ASSEMBLY_PART')
);
#620=UNCERTAINTY_MEASURE_WITH_UNIT(LENGTH_MEASURE(1.E-8),#623,
'DISTANCE_ACCURACY_VALUE','Maximum Tolerance applied to model');
#621=(
NAMED_UNIT(*)
SI_UNIT($,.STERADIAN.)
SOLID_ANGLE_UNIT()
);
#622=(
NAMED_UNIT(*)
PLANE_ANGLE_UNIT()
SI_UNIT($,.RADIAN.)
);
#623=(
LENGTH_UNIT()
NAMED_UNIT(*)
SI_UNIT($,.METRE.)
);
#624=PRODUCT_DEFINITION_SHAPE('','',#625);
#625=PRODUCT_DEFINITION('','',#627,#626);
#626=PRODUCT_DEFINITION_CONTEXT('',#633,'design');
#627=PRODUCT_DEFINITION_FORMATION_WITH_SPECIFIED_SOURCE('','',#629,
 .NOT_KNOWN.);
#628=PRODUCT_RELATED_PRODUCT_CATEGORY('','',(#629));
#629=PRODUCT('Panel','Panel','Panel',(#631));
#630=PRODUCT_CATEGORY('','');
#631=PRODUCT_CONTEXT('',#633,'mechanical');
#632=APPLICATION_PROTOCOL_DEFINITION('international standard',
'ap242_managed_model_based_3d_engineering',2020,#633);
#633=APPLICATION_CONTEXT('managed model based 3d engineering');
ENDSEC;
END-ISO-10303-21;
